<svg width="11" height="52" viewBox="0 0 11 52" fill="none" xmlns="http://www.w3.org/2000/svg">
<rect width="0" height="41" transform="translate(5.33398 5.5)" fill="white"/>
<path d="M0.000650883 5.5C0.000650883 8.44552 2.38847 10.8333 5.33398 10.8333C8.2795 10.8333 10.6673 8.44552 10.6673 5.5C10.6673 2.55448 8.2795 0.166667 5.33398 0.166667C2.38847 0.166667 0.000650883 2.55448 0.000650883 5.5ZM0.000650883 46.5C0.000650883 49.4455 2.38847 51.8333 5.33398 51.8333C8.2795 51.8333 10.6673 49.4455 10.6673 46.5C10.6673 43.5545 8.2795 41.1667 5.33398 41.1667C2.38847 41.1667 0.000650883 43.5545 0.000650883 46.5ZM4.33398 5.5V46.5H6.33398V5.5H4.33398Z" fill="#672DA8"/>
</svg>
