<svg width="54" height="56" viewBox="0 0 54 56" fill="none" xmlns="http://www.w3.org/2000/svg">
<path d="M32.1131 51.6036C31.3877 52.7095 30.3866 53.6073 29.2084 54.2084C28.2197 54.7342 27.117 55.0092 25.9971 55.0092C24.8773 55.0092 23.7746 54.7342 22.7859 54.2084C22.0826 53.8117 21.4577 53.2899 20.9419 52.6688L32.131 51.6215L32.1131 51.6036ZM32.0236 20.2205C31.9489 20.1429 31.8592 20.0814 31.7599 20.0399C31.6606 19.9983 31.5538 19.9775 31.4462 19.9788C31.3379 19.9774 31.2304 19.9982 31.1304 20.0397C31.0303 20.0813 30.9398 20.1428 30.8644 20.2205L29.9692 21.1156C29.7306 20.9601 29.4808 20.8225 29.2218 20.7039C28.9578 20.5875 28.6892 20.4801 28.4207 20.3906V19.0479C28.4213 18.9404 28.4005 18.8338 28.3595 18.7344C28.3185 18.635 28.2581 18.5448 28.1819 18.469C28.1056 18.3932 28.0151 18.3333 27.9154 18.2928C27.8158 18.2524 27.7092 18.2321 27.6016 18.2333H25.9009C25.7943 18.2315 25.6884 18.2517 25.5898 18.2925C25.4913 18.3333 25.4022 18.3939 25.328 18.4705C25.2483 18.5437 25.1851 18.6331 25.1426 18.7327C25.1002 18.8322 25.0795 18.9397 25.0819 19.0479V20.2921C24.8018 20.3581 24.5267 20.4434 24.2584 20.5472C23.9961 20.6473 23.7405 20.7639 23.493 20.8963L22.5173 19.9341C22.4459 19.8546 22.3581 19.7914 22.26 19.7489C22.1619 19.7064 22.0558 19.6856 21.9489 19.6879C21.8403 19.6868 21.7325 19.7081 21.6324 19.7505C21.5323 19.7928 21.442 19.8553 21.3671 19.9341L20.1855 21.1067C20.1065 21.1804 20.0437 21.2699 20.0013 21.3693C19.9589 21.4687 19.9378 21.5759 19.9394 21.684C19.9378 21.7928 19.9588 21.9007 20.0012 22.0009C20.0436 22.101 20.1064 22.1913 20.1855 22.2659L21.0807 23.161C20.9283 23.4007 20.7922 23.6504 20.6734 23.9084C20.5547 24.1697 20.4501 24.4371 20.3601 24.7096H19.0174C18.9084 24.7047 18.7996 24.722 18.6974 24.7602C18.5953 24.7985 18.5019 24.857 18.4229 24.9322C18.3439 25.0075 18.2809 25.0979 18.2377 25.198C18.1945 25.2982 18.172 25.4061 18.1715 25.5152V27.2159C18.1712 27.3223 18.1921 27.4277 18.2328 27.5261C18.2735 27.6244 18.3333 27.7137 18.4087 27.7888C18.4831 27.8682 18.5733 27.9311 18.6735 27.9735C18.7738 28.0159 18.8817 28.0368 18.9905 28.0349H20.2348C20.2967 28.3161 20.382 28.5915 20.4899 28.8585C20.5897 29.1251 20.7063 29.3852 20.839 29.6372L19.8722 30.604C19.7934 30.676 19.7307 30.7638 19.6883 30.8618C19.6459 30.9598 19.6247 31.0656 19.6261 31.1724C19.626 31.2809 19.6478 31.3883 19.6901 31.4883C19.7324 31.5882 19.7943 31.6786 19.8722 31.7542L21.0672 32.9626C21.2254 33.1095 21.4332 33.1912 21.6491 33.1912C21.8649 33.1912 22.0728 33.1095 22.2309 32.9626L23.126 32.0675C23.3667 32.2208 23.618 32.3569 23.8779 32.4748C24.1388 32.5942 24.4063 32.6988 24.6791 32.7881V34.1307C24.6766 34.2388 24.6963 34.3462 24.7371 34.4463C24.7779 34.5464 24.8389 34.6371 24.9163 34.7126C24.9921 34.7895 25.0828 34.8502 25.1828 34.891C25.2828 34.9317 25.3901 34.9517 25.4981 34.9498H27.1988C27.4048 34.9469 27.6018 34.8652 27.7493 34.7215C27.8273 34.6462 27.8889 34.5557 27.9305 34.4557C27.9721 34.3556 27.9927 34.248 27.991 34.1397V32.8955C28.2738 32.8342 28.5508 32.7488 28.819 32.6404C29.0857 32.5405 29.3458 32.4239 29.5978 32.2913L30.569 33.258C30.6426 33.336 30.7314 33.3982 30.8299 33.4407C30.9284 33.4831 31.0346 33.5051 31.1419 33.5051C31.2491 33.5051 31.3553 33.4831 31.4538 33.4407C31.5523 33.3982 31.6411 33.336 31.7147 33.258L32.9232 32.063C33.0701 31.9049 33.1517 31.697 33.1517 31.4812C33.1517 31.2653 33.0701 31.0575 32.9232 30.8993L32.028 30.0042C32.1845 29.7646 32.3222 29.5132 32.4398 29.2523C32.5562 28.9882 32.6636 28.7242 32.7531 28.4512H34.0958C34.2022 28.4518 34.3076 28.4314 34.4061 28.3912C34.5046 28.3511 34.5943 28.2919 34.6699 28.2171C34.7455 28.1423 34.8057 28.0533 34.847 27.9552C34.8882 27.8572 34.9097 27.7519 34.9103 27.6456V25.9627C34.9116 25.8562 34.8912 25.7504 34.8505 25.652C34.8097 25.5535 34.7494 25.4643 34.6731 25.3898C34.599 25.3116 34.5094 25.2497 34.41 25.2081C34.3105 25.1665 34.2035 25.146 34.0958 25.1482H32.8605C32.7925 24.8701 32.7073 24.5966 32.6054 24.3291C32.5062 24.0651 32.3896 23.8079 32.2563 23.5593L33.2185 22.5792C33.2985 22.5081 33.362 22.4204 33.4045 22.3222C33.447 22.224 33.4676 22.1177 33.4647 22.0108C33.4657 21.9027 33.4443 21.7957 33.402 21.6963C33.3596 21.597 33.2972 21.5075 33.2185 21.4334L32.0236 20.2384V20.2205ZM26.5454 22.06C27.1512 22.0561 27.7513 22.1764 28.3088 22.4136C29.3973 22.8676 30.2627 23.7329 30.7167 24.8214C30.9501 25.3801 31.0702 25.9794 31.0702 26.5848C31.0702 27.1902 30.9501 27.7896 30.7167 28.3482C30.4891 28.8858 30.161 29.375 29.7499 29.7894C29.3347 30.1995 28.8458 30.5275 28.3088 30.7561C27.1793 31.2216 25.9115 31.2216 24.782 30.7561C23.6951 30.3011 22.8315 29.4359 22.3786 28.3482C21.9131 27.2187 21.9131 25.951 22.3786 24.8214C22.6072 24.2845 22.9352 23.7955 23.3453 23.3803C23.7598 22.9692 24.2489 22.6411 24.7865 22.4136C25.3441 22.1769 25.9441 22.0566 26.5499 22.06H26.5454ZM15.3966 38.4945C14.7924 37.7247 14.1793 36.9414 13.575 36.0239C12.9108 35.0196 12.3471 33.9522 11.8922 32.8373C11.4154 31.6622 11.06 30.4415 10.8315 29.1941C10.6081 27.9528 10.5344 26.6891 10.6122 25.4301C10.699 24.1235 10.9455 22.8323 11.3462 21.5856C11.7814 20.2381 12.3669 18.944 13.0917 17.7276L13.1678 17.6157C14.0855 16.2236 15.222 14.9888 16.5334 13.9591C17.8278 12.9438 19.2831 12.1526 20.839 11.6184L20.9553 11.5826C22.128 11.1875 23.3434 10.9336 24.5761 10.8262C25.8759 10.7165 27.1839 10.7571 28.4744 10.947C29.7336 11.1349 30.9686 11.4591 32.1578 11.9138C33.3454 12.3685 34.4788 12.9539 35.5369 13.6592C36.9148 14.5779 38.1409 15.7059 39.1711 17.0025C40.1755 18.2675 40.9593 19.6929 41.4895 21.2186C41.7907 22.0932 42.0183 22.9914 42.1698 23.9039C42.3334 24.8751 42.4008 25.86 42.3712 26.8444C42.3399 27.9464 42.1898 29.0418 41.9236 30.1116C41.6503 31.2121 41.268 32.2826 40.7823 33.3072C39.753 35.5137 37.994 37.6933 36.253 39.8372C35.3579 40.9337 34.4941 42.0123 33.7511 43.0641C33.5941 43.2884 33.3748 43.4619 33.1202 43.5629C32.8657 43.6639 32.5871 43.6881 32.3189 43.6325L19.3396 44.8409C19.0179 44.8594 18.6996 44.7668 18.4381 44.5786C18.1765 44.3903 17.9876 44.118 17.903 43.807C17.6171 42.774 17.2459 41.7665 16.793 40.7949C16.4137 39.979 15.9454 39.2075 15.3966 38.4945ZM15.9158 34.4664C16.4439 35.2675 17.0258 36.0195 17.6031 36.7535C18.277 37.6358 18.8504 38.5905 19.3128 39.5999C19.6658 40.3574 19.9751 41.1345 20.2392 41.9273L31.8982 40.8442C32.5741 39.949 33.3215 39.0047 34.0779 38.0648C35.707 36.0508 37.3719 33.9965 38.2581 32.0988C38.6657 31.2382 38.9851 30.3384 39.2114 29.4134C39.4287 28.5339 39.5517 27.6337 39.5784 26.7281C39.5949 25.9175 39.538 25.1071 39.4083 24.3067C39.2784 23.5465 39.0868 22.7981 38.8354 22.0689C38.4087 20.8425 37.7777 19.697 36.9691 18.6809C36.12 17.6119 35.1081 16.6831 33.9705 15.9284C33.0896 15.3419 32.1452 14.857 31.1553 14.4828C30.1574 14.0987 29.1202 13.8256 28.0626 13.6682C26.987 13.5102 25.8966 13.4771 24.8133 13.5697C23.8083 13.6539 22.8168 13.8567 21.8594 14.1739L21.7475 14.2187C20.4846 14.6497 19.3031 15.2897 18.2521 16.1119C17.1913 16.9488 16.2685 17.947 15.5175 19.0703V19.0971C14.8989 20.1296 14.3989 21.2286 14.0271 22.3733C13.6933 23.4151 13.4918 24.4947 13.4274 25.5868C13.3653 26.6348 13.4284 27.6866 13.6153 28.7197C13.8061 29.7744 14.1061 30.8063 14.5104 31.7989C14.8914 32.7397 15.3668 33.6394 15.9292 34.4843L15.9158 34.4664ZM27.5077 1.65563C27.5432 1.18446 27.7636 0.746434 28.1207 0.437066C28.4779 0.127699 28.9428 -0.0279245 29.4143 0.00412667C29.4559 -0.000529128 29.4979 -0.000529128 29.5396 0.00412667C29.9754 0.0605268 30.3744 0.277595 30.6585 0.612811C30.9697 0.964294 31.1305 1.42398 31.1061 1.89284C31.1085 1.92262 31.1085 1.95257 31.1061 1.98235L30.7659 5.82243C30.7681 5.86268 30.7681 5.90303 30.7659 5.94328C30.7047 6.37747 30.4885 6.77487 30.1572 7.06218C29.8016 7.36376 29.3424 7.51469 28.8772 7.48289H28.7519C28.3177 7.42164 27.9203 7.20546 27.633 6.87421C27.3314 6.5186 27.1805 6.05936 27.2123 5.59418C27.2096 5.5629 27.2096 5.53146 27.2123 5.50019L27.5121 1.67801L27.5077 1.65563ZM7.47925 7.25463C7.15032 6.91313 6.9703 6.45509 6.97869 5.98101C6.98708 5.50694 7.1832 5.05555 7.52401 4.72591C7.86472 4.39777 8.32146 4.21781 8.79444 4.22536C9.26742 4.23291 9.71818 4.42734 10.0483 4.76619L12.765 7.58583C13.0917 7.92955 13.2716 8.38715 13.2662 8.86138C13.2596 9.21481 13.1484 9.55836 12.9468 9.84872C12.7451 10.1391 12.4621 10.3632 12.1332 10.493C11.8044 10.6227 11.4445 10.6521 11.099 10.5776C10.7534 10.5031 10.4376 10.328 10.1915 10.0743L7.47925 7.25463ZM1.7236 26.652C1.25884 26.6347 0.819031 26.4373 0.497282 26.1015C0.334315 25.9313 0.206542 25.7306 0.121291 25.511C0.0360399 25.2913 -0.00501248 25.057 0.000487906 24.8214C0.0133839 24.3482 0.213228 23.8993 0.556289 23.573C0.899351 23.2467 1.35769 23.0696 1.83102 23.0804L5.74271 23.161C6.21677 23.1727 6.66681 23.3721 6.99405 23.7152C7.3213 24.0584 7.49902 24.5174 7.4882 24.9915V25.0184V25.0855C7.45425 25.5267 7.25814 25.9396 6.9377 26.2447C6.5944 26.5711 6.13572 26.7481 5.66215 26.737H5.59054L1.72808 26.652H1.7236ZM51.2374 23.8189H51.2956C51.7422 23.8078 52.1761 23.9679 52.5085 24.2665C52.6839 24.4255 52.8261 24.6177 52.9267 24.8321C53.0274 25.0464 53.0845 25.2786 53.0948 25.5152C53.097 25.5345 53.097 25.554 53.0948 25.5733C53.1019 26.0193 52.9423 26.4518 52.6472 26.7862C52.4892 26.9607 52.2984 27.1022 52.0857 27.2028C51.873 27.3034 51.6425 27.3611 51.4075 27.3725L47.5002 27.5695C47.0268 27.5914 46.564 27.4246 46.2133 27.1058C45.8626 26.787 45.6526 26.3421 45.6294 25.8687C45.6075 25.3953 45.7743 24.9325 46.0931 24.5818C46.4119 24.2311 46.8568 24.0211 47.3302 23.9979C48.6371 23.9263 49.9484 23.8502 51.2508 23.7965L51.2374 23.8189ZM44.3986 7.84989C44.6847 7.47402 45.1077 7.22642 45.5755 7.16103C46.0432 7.09564 46.5179 7.21776 46.896 7.50079C47.0851 7.64007 47.244 7.81616 47.3632 8.01844C47.4824 8.22073 47.5595 8.44504 47.5898 8.67788C47.6251 8.91306 47.6132 9.15292 47.5548 9.38345C47.4964 9.61399 47.3927 9.83057 47.2496 10.0206L44.8999 13.1535C44.7586 13.3419 44.5814 13.5005 44.3787 13.6203C44.1759 13.7401 43.9515 13.8188 43.7183 13.8517C43.4853 13.8845 43.248 13.8711 43.0201 13.8121C42.7923 13.7532 42.5783 13.6499 42.3904 13.5081C42.2025 13.3664 42.0444 13.1889 41.9251 12.986C41.8059 12.7831 41.7278 12.5586 41.6954 12.3255C41.6607 12.09 41.6733 11.85 41.7325 11.6195C41.7916 11.3889 41.8962 11.1725 42.04 10.9828L44.3942 7.84989H44.3986ZM33.505 45.4451L33.4781 46.1702V46.4253C33.4908 46.9021 33.4698 47.3791 33.4155 47.853L33.1425 48.8824L19.6082 50.1445L19.4023 49.594L18.9995 47.4457L19.0264 46.8236L33.505 45.4809V45.4451Z" fill="white"/>
</svg>
