<svg width="195" height="54" viewBox="0 0 195 54" fill="none" xmlns="http://www.w3.org/2000/svg">
<g clip-path="url(#clip0_43_13)">
<path d="M26.5909 0.644196C21.3318 0.644196 16.1906 2.2064 11.8178 5.13327C7.44494 8.06014 4.03672 12.2202 2.02412 17.0874C0.0115216 21.9546 -0.515067 27.3103 0.510949 32.4774C1.53697 37.6443 4.06951 42.3905 7.78831 46.1158C11.5071 49.8409 16.2452 52.3778 21.4032 53.4055C26.5614 54.4334 31.908 53.9058 36.7668 51.8898C41.6256 49.8737 45.7786 46.4597 48.7005 42.0793C51.6223 37.6989 53.1818 32.549 53.1818 27.2808C53.1818 23.7829 52.494 20.3191 51.1577 17.0874C49.8214 13.8557 47.8627 10.9193 45.3936 8.44588C42.9244 5.97244 39.9929 4.0104 36.7668 2.67178C33.5407 1.33317 30.0828 0.644196 26.5909 0.644196ZM41.6876 14.8275C41.6876 15.3583 41.5655 15.8819 41.3307 16.3577C41.096 16.8335 40.7549 17.2487 40.334 17.571L28.6071 26.5746V27.987L40.7041 37.2731C41.0098 37.5069 41.2576 37.8082 41.4281 38.1536C41.5986 38.499 41.6875 38.8791 41.6876 39.2644V48.0598L29.5905 38.7807C29.2848 38.5469 29.0371 38.2454 28.8665 37.9001C28.696 37.5548 28.6072 37.1746 28.6071 36.7893V27.987H24.5712V36.3197C24.5712 36.8504 24.4491 37.3741 24.2145 37.8499C23.9797 38.3257 23.6387 38.7409 23.2177 39.0632L11.4837 48.0598V39.7341C11.4837 39.2033 11.6058 38.6797 11.8405 38.2039C12.0753 37.7281 12.4163 37.3129 12.8372 36.9906L24.5712 27.987V26.5746L12.8443 17.571C12.4221 17.2493 12.0797 16.8345 11.8437 16.3587C11.6077 15.8829 11.4845 15.3589 11.4837 14.8275V6.50184L23.2106 15.4984C23.6316 15.8207 23.9726 16.2359 24.2074 16.7117C24.4421 17.1875 24.5642 17.7112 24.5641 18.2419V26.5746H28.6001V18.2419C28.6 17.7112 28.7221 17.1875 28.9568 16.7117C29.1916 16.2359 29.5326 15.8207 29.9536 15.4984L41.6805 6.50184L41.6876 14.8275Z" fill="url(#paint0_linear_43_13)"/>
<path d="M84.8339 17.4608V36.1597H80.2868V24.9457L76.112 36.1597H72.4425L68.2411 24.919V36.1597H63.6941V17.4608H69.0655L74.3039 30.4062L79.4891 17.4608H84.8339ZM101.559 28.4883C101.559 28.9145 101.532 29.3585 101.479 29.8202H91.1883C91.2592 30.7436 91.5517 31.4539 92.0658 31.9511C92.5976 32.4305 93.2447 32.6703 94.007 32.6703C95.1415 32.6703 95.9304 32.1908 96.3736 31.2319H101.213C100.965 32.2086 100.513 33.0876 99.857 33.8689C99.2188 34.6503 98.4122 35.2629 97.4372 35.7068C96.4622 36.1508 95.372 36.3728 94.1665 36.3728C92.7129 36.3728 91.4188 36.062 90.2842 35.4405C89.1497 34.819 88.2633 33.9311 87.6251 32.7768C86.987 31.6226 86.6679 30.273 86.6679 28.7281C86.6679 27.1831 86.9781 25.8335 87.5986 24.6793C88.2367 23.525 89.1231 22.6372 90.2576 22.0156C91.3922 21.3941 92.6951 21.0834 94.1665 21.0834C95.6024 21.0834 96.8788 21.3852 97.9956 21.989C99.1124 22.5928 99.9811 23.454 100.602 24.5727C101.24 25.6915 101.559 26.9967 101.559 28.4883ZM96.9054 27.2897C96.9054 26.5083 96.6395 25.8868 96.1076 25.4251C95.5758 24.9634 94.911 24.7326 94.1133 24.7326C93.351 24.7326 92.704 24.9545 92.1722 25.3985C91.6581 25.8424 91.339 26.4728 91.2149 27.2897H96.9054ZM111.695 32.2974V36.1597H109.382C107.733 36.1597 106.448 35.7601 105.526 34.961C104.605 34.1442 104.144 32.8212 104.144 30.9922V25.0788H102.335V21.2964H104.144V17.6739H108.691V21.2964H111.669V25.0788H108.691V31.0454C108.691 31.4894 108.797 31.809 109.01 32.0044C109.222 32.1997 109.577 32.2974 110.073 32.2974H111.695ZM112.792 28.7014C112.792 27.1743 113.076 25.8335 113.643 24.6793C114.228 23.525 115.017 22.6372 116.009 22.0156C117.002 21.3941 118.11 21.0834 119.333 21.0834C120.379 21.0834 121.292 21.2964 122.072 21.7226C122.87 22.1488 123.482 22.7082 123.907 23.4007V21.2964H128.454V36.1597H123.907V34.0554C123.464 34.7479 122.843 35.3073 122.046 35.7335C121.266 36.1597 120.353 36.3728 119.307 36.3728C118.101 36.3728 117.002 36.062 116.009 35.4405C115.017 34.8012 114.228 33.9044 113.643 32.7502C113.076 31.5782 112.792 30.2286 112.792 28.7014ZM123.907 28.7281C123.907 27.5916 123.588 26.6948 122.95 26.0378C122.329 25.3807 121.567 25.0522 120.663 25.0522C119.759 25.0522 118.988 25.3807 118.35 26.0378C117.729 26.677 117.419 27.5649 117.419 28.7014C117.419 29.8379 117.729 30.7436 118.35 31.4184C118.988 32.0754 119.759 32.4039 120.663 32.4039C121.567 32.4039 122.329 32.0754 122.95 31.4184C123.588 30.7613 123.907 29.8646 123.907 28.7281ZM130.441 26.7836C130.441 24.9368 130.839 23.2942 131.637 21.8558C132.435 20.3997 133.543 19.2721 134.961 18.473C136.397 17.6561 138.019 17.2477 139.827 17.2477C142.043 17.2477 143.94 17.8337 145.518 19.0057C147.095 20.1777 148.15 21.7759 148.682 23.8003H143.683C143.311 23.0189 142.779 22.4241 142.087 22.0156C141.414 21.6072 140.643 21.403 139.774 21.403C138.374 21.403 137.239 21.8913 136.37 22.868C135.502 23.8447 135.067 25.1499 135.067 26.7836C135.067 28.4173 135.502 29.7225 136.37 30.6992C137.239 31.6758 138.374 32.1642 139.774 32.1642C140.643 32.1642 141.414 31.96 142.087 31.5515C142.779 31.1431 143.311 30.5482 143.683 29.7669H148.682C148.15 31.7913 147.095 33.3895 145.518 34.5615C143.94 35.7157 142.043 36.2928 139.827 36.2928C138.019 36.2928 136.397 35.8933 134.961 35.0942C133.543 34.2773 132.435 33.1497 131.637 31.7114C130.839 30.273 130.441 28.6304 130.441 26.7836ZM155.483 23.7736C156.014 22.9568 156.679 22.3175 157.477 21.8558C158.275 21.3764 159.161 21.1366 160.136 21.1366V25.9578H158.886C157.752 25.9578 156.901 26.2065 156.334 26.7037C155.766 27.1831 155.483 28.0355 155.483 29.2608V36.1597H150.936V21.2964H155.483V23.7736ZM176.934 21.2964L167.627 43.2184H162.734L166.138 35.6536L160.102 21.2964H165.181L168.611 30.5926L172.014 21.2964H176.934ZM182.593 23.4007C183.036 22.7082 183.648 22.1488 184.428 21.7226C185.208 21.2964 186.121 21.0834 187.167 21.0834C188.39 21.0834 189.498 21.3941 190.491 22.0156C191.483 22.6372 192.263 23.525 192.831 24.6793C193.416 25.8335 193.708 27.1743 193.708 28.7014C193.708 30.2286 193.416 31.5782 192.831 32.7502C192.263 33.9044 191.483 34.8012 190.491 35.4405C189.498 36.062 188.39 36.3728 187.167 36.3728C186.139 36.3728 185.226 36.1597 184.428 35.7335C183.648 35.3073 183.036 34.7568 182.593 34.082V43.245H178.046V21.2964H182.593V23.4007ZM189.081 28.7014C189.081 27.5649 188.762 26.677 188.124 26.0378C187.504 25.3807 186.732 25.0522 185.811 25.0522C184.907 25.0522 184.135 25.3807 183.497 26.0378C182.877 26.6948 182.567 27.5916 182.567 28.7281C182.567 29.8646 182.877 30.7613 183.497 31.4184C184.135 32.0754 184.907 32.4039 185.811 32.4039C186.715 32.4039 187.486 32.0754 188.124 31.4184C188.762 30.7436 189.081 29.8379 189.081 28.7014Z" fill="#FDFDFD"/>
</g>
<defs>
<linearGradient id="paint0_linear_43_13" x1="2.91853" y1="15.1312" x2="52.1136" y2="40.2975" gradientUnits="userSpaceOnUse">
<stop stop-color="#4ABCEF"/>
<stop offset="0.31" stop-color="#3D2ABE"/>
<stop offset="1" stop-color="#DA4B96"/>
</linearGradient>
<clipPath id="clip0_43_13">
<rect width="195" height="53.2732" fill="white" transform="translate(0 0.644196)"/>
</clipPath>
</defs>
</svg>
